<?xml version="1.0" standalone="no"?>
<!DOCTYPE svg PUBLIC "-//W3C//DTD SVG 20010904//EN"
 "http://www.w3.org/TR/2001/REC-SVG-20010904/DTD/svg10.dtd">
<svg version="1.0" xmlns="http://www.w3.org/2000/svg"
 width="700.000000pt" height="700.000000pt" viewBox="0 0 700.000000 700.000000"
 preserveAspectRatio="xMidYMid meet">
<metadata>
Created by potrace 1.14, written by Peter Selinger 2001-2017
</metadata>
<g transform="translate(0.000000,700.000000) scale(0.100000,-0.100000)"
fill="#000000" stroke="none">
<path d="M3269 6996 c-2 -2 -42 -6 -89 -10 -661 -51 -1361 -337 -1895 -775
-462 -379 -838 -894 -1041 -1424 -25 -67 -50 -131 -55 -142 -23 -55 -95 -316
-115 -420 -2 -11 -8 -42 -14 -70 -12 -61 -17 -90 -29 -180 -36 -253 -37 -696
-2 -940 19 -131 22 -150 53 -290 243 -1125 1050 -2072 2128 -2500 196 -78 500
-166 655 -189 22 -4 67 -11 100 -16 104 -17 127 -19 225 -27 123 -10 520 -10
630 0 1198 108 2268 838 2810 1918 188 373 309 789 354 1219 14 128 16 624 3
690 -3 14 -8 52 -12 85 -100 903 -594 1770 -1335 2346 -475 370 -1095 628
-1675 699 -49 6 -103 13 -120 16 -36 6 -570 16 -576 10z m-863 -1362 c1 -9 0
-13 -4 -10 -3 4 -7 14 -8 22 -1 9 0 13 4 10 3 -4 7 -14 8 -22z m3357 -229 c-3
-9 -8 -14 -10 -11 -3 3 -2 9 2 15 9 16 15 13 8 -4z m167 -5 c0 -5 -5 -10 -11
-10 -5 0 -7 5 -4 10 3 6 8 10 11 10 2 0 4 -4 4 -10z m-2710 -314 c0 -2 -8 -10
-17 -17 -16 -13 -17 -12 -4 4 13 16 21 21 21 13z m2156 -168 c3 -4 -1 -5 -10
-4 -8 1 -18 5 -22 8 -3 4 1 5 10 4 8 -1 18 -5 22 -8z m-4326 -1822 c0 -2 -8
-10 -17 -17 -16 -13 -17 -12 -4 4 13 16 21 21 21 13z"/>
</g>
</svg>
