<svg width="105" height="105" viewBox="0 0 105 105" fill="none" xmlns="http://www.w3.org/2000/svg">
<circle cx="52.5" cy="52.5" r="52" fill="white" fill-opacity="0.8" stroke="black"/>
<path fill-rule="evenodd" clip-rule="evenodd" d="M75.0592 43.0411C78.6635 43.3788 79.9421 46.4282 83.2243 47.421C86.9078 48.5353 91.7942 47.4748 94.9942 49.0714C98.4377 50.7895 101.171 53.5294 100.992 56.2859C100.812 59.0417 96.7895 60.9965 94.0775 63.1686C91.6986 65.0739 89.5796 67.2335 86.0681 68.2382C82.667 69.2113 78.6951 69.1559 75.0592 68.6102C71.8149 68.1233 69.7443 66.2231 66.7242 65.335C63.331 64.3373 58.7304 64.858 56.2707 63.0853C53.8118 61.3132 53.8147 58.6241 54.1682 56.2859C54.5051 54.057 56.2417 52.0559 58.2197 50.1917C60.1086 48.4116 62.5277 46.9454 65.3515 45.7463C68.3341 44.4798 71.4961 42.7072 75.0592 43.0411Z" fill="#00789E" fill-opacity="0.2" stroke="black" stroke-width="0.1"/>
<path d="M28.6891 79.7675L59 27.2675L89.3109 79.7675H28.6891Z" fill="black" stroke="black"/>
<line x1="58.5629" y1="28.0247" x2="61.9624" y2="21.9056" stroke="black"/>
<line x1="55.416" y1="21.9902" x2="59.416" y2="27.9902" stroke="black"/>
<path d="M59 55.2675L71.9904 77.7675H46.0096L59 55.2675Z" fill="white" fill-opacity="0.8"/>
<circle cx="77" cy="20.2675" r="4.75" fill="white" fill-opacity="0.8" stroke="black" stroke-width="0.5"/>
<line x1="68.1061" y1="11.1615" x2="72.1061" y2="15.1615" stroke="black" stroke-width="0.3"/>
<line x1="80.1248" y1="27.1843" x2="82.1248" y2="30.1843" stroke="black" stroke-width="0.3"/>
<line x1="76.1455" y1="27.2311" x2="77.1455" y2="31.2311" stroke="black" stroke-width="0.3"/>
<line x1="72.1342" y1="26.3346" x2="70.1342" y2="30.3346" stroke="black" stroke-width="0.3"/>
<line x1="83.09" y1="24.1475" x2="87.09" y2="27.1475" stroke="black" stroke-width="0.3"/>
<line x1="83.9706" y1="17.1204" x2="88.9706" y2="16.1204" stroke="black" stroke-width="0.3"/>
<line x1="84.0474" y1="20.1252" x2="87.0474" y2="21.1252" stroke="black" stroke-width="0.3"/>
<line x1="83.1248" y1="11.3507" x2="81.1248" y2="14.3507" stroke="black" stroke-width="0.3"/>
<line x1="76.148" y1="7.24286" x2="77.148" y2="13.2429" stroke="black" stroke-width="0.3"/>
<line x1="66.9526" y1="24.1252" x2="69.9526" y2="23.1252" stroke="black" stroke-width="0.3"/>
<line x1="65.0294" y1="18.1204" x2="70.0294" y2="19.1204" stroke="black" stroke-width="0.3"/>
<line x1="27.383" y1="22.5889" x2="22.8835" y2="27.9512" stroke="black"/>
<line x1="32.1165" y1="27.9512" x2="27.617" y2="22.5889" stroke="black"/>
<line x1="27.383" y1="28.5889" x2="20.9551" y2="36.2494" stroke="black"/>
<line x1="27.383" y1="34.5889" x2="19.6696" y2="43.7814" stroke="black"/>
<line x1="34.045" y1="36.2493" x2="27.6171" y2="28.5889" stroke="black"/>
<line x1="35.3304" y1="43.7814" x2="27.6169" y2="34.5889" stroke="black"/>
<line x1="27.5" y1="22.2675" x2="27.5" y2="48.2675" stroke="black"/>
<line x1="14.0964" y1="33.5889" x2="9.59689" y2="38.9512" stroke="black"/>
<line x1="18.8299" y1="38.9512" x2="14.3304" y2="33.5889" stroke="black"/>
<line x1="14.0964" y1="39.5889" x2="7.66852" y2="47.2494" stroke="black"/>
<line x1="14.0964" y1="45.5889" x2="6.38295" y2="54.7814" stroke="black"/>
<line x1="20.7583" y1="47.2493" x2="14.3305" y2="39.5889" stroke="black"/>
<line x1="22.0437" y1="54.7814" x2="14.3303" y2="45.5889" stroke="black"/>
<line x1="14.2134" y1="33.2675" x2="14.2134" y2="59.2675" stroke="black"/>
<line x1="41.1574" y1="20.5889" x2="37.2057" y2="25.2983" stroke="black"/>
<line x1="45.2212" y1="25.2984" x2="41.2695" y2="20.5889" stroke="black"/>
<line x1="41.1574" y1="25.8584" x2="35.5122" y2="32.5862" stroke="black"/>
<line x1="41.1574" y1="31.1279" x2="34.3831" y2="39.2012" stroke="black"/>
<line x1="46.9148" y1="32.5862" x2="41.2696" y2="25.8584" stroke="black"/>
<line x1="48.0437" y1="39.2012" x2="41.2694" y2="31.1279" stroke="black"/>
<line x1="41.2744" y1="20.2675" x2="41.2744" y2="43.102" stroke="black"/>
<line x1="83" y1="50.2175" x2="89" y2="50.2175" stroke="black" stroke-width="0.1"/>
<line x1="83" y1="50.2175" x2="89" y2="50.2175" stroke="black" stroke-width="0.1"/>
<line x1="79" y1="58.2175" x2="82" y2="58.2175" stroke="black" stroke-width="0.1"/>
<line x1="84" y1="63.95" x2="91" y2="63.95" stroke="black" stroke-width="0.1"/>
<line x1="96" y1="54.2175" x2="101" y2="54.2175" stroke="black" stroke-width="0.1"/>
<line x1="87" y1="56.2175" x2="89" y2="56.2175" stroke="black" stroke-width="0.1"/>
<rect x="11" y="79.7675" width="15" height="2" rx="1" transform="rotate(-30 11 79.7675)" fill="black"/>
<rect x="12" y="72.2675" width="15" height="2" rx="1" transform="rotate(30 12 72.2675)" fill="black"/>
<path d="M19.5581 66.4842C19.0581 67.4842 18.4169 64.2699 17.8877 64.2675C17.6908 64.9842 17.2299 66.4842 16.8877 65.7675C16.4078 65.9936 16.9904 68.4842 15.8877 68.7675C15.8877 69.7675 15.2903 69.6306 15.0673 70.199C14.8125 70.8481 15.3875 71.7675 15.058 72.2675C16 73.7675 20 73.2675 20.5581 72.2675C21.5581 71.7675 20.8877 70.7675 20.9749 70.342C20.3877 70.2675 20.1129 68.8714 19.8877 68.2675C19.6588 67.6538 20.0581 66.9842 19.5581 66.4842Z" fill="#AB8671"/>
<path d="M18.9817 70.5063C18.6546 71.0652 18.2352 69.2688 17.889 69.2675C17.7602 69.668 17.4587 70.5063 17.2348 70.1058C16.9209 70.2322 17.302 71.6241 16.5807 71.7824C16.5807 72.3413 16.1899 72.2647 16.044 72.5824C15.8773 72.9452 16.2535 73.459 16.0379 73.7384C16.6542 74.5767 19.2708 74.2973 19.6359 73.7384C20.29 73.459 19.8515 72.9001 19.9085 72.6623C19.5244 72.6207 19.3446 71.8405 19.1973 71.503C19.0476 71.16 19.3088 70.7858 18.9817 70.5063Z" fill="white" fill-opacity="0.8"/>
</svg>
